<?xml version="1.0" standalone="no"?>
<!DOCTYPE svg PUBLIC "-//W3C//DTD SVG 20010904//EN"
 "http://www.w3.org/TR/2001/REC-SVG-20010904/DTD/svg10.dtd">
<svg version="1.0" xmlns="http://www.w3.org/2000/svg"
 width="225.000000pt" height="225.000000pt" viewBox="0 0 225.000000 225.000000"
 preserveAspectRatio="xMidYMid meet">

<g transform="translate(0.000000,225.000000) scale(0.100000,-0.100000)"
fill="#000000" stroke="none">
<path d="M1192 2224 c-38 -19 -59 -38 -78 -69 l-25 -44 -32 18 c-47 27 -331
95 -363 87 -47 -12 -69 -47 -93 -142 -20 -83 -21 -94 -8 -126 15 -35 65 -68
104 -68 13 0 10 -5 -13 -20 -18 -12 -37 -33 -42 -48 -6 -15 -43 -170 -82 -344
-90 -406 -93 -395 107 -438 56 -12 116 -20 135 -18 l33 3 73 -184 72 -184 -69
-91 c-38 -50 -101 -133 -140 -184 -60 -80 -71 -100 -71 -134 0 -50 13 -74 50
-93 36 -19 63 -19 99 -1 30 16 337 411 354 456 10 25 4 47 -42 167 -67 175
-76 201 -68 210 14 13 29 -17 98 -198 l69 -184 25 -262 c25 -277 31 -299 81
-321 52 -24 113 -3 139 48 15 28 14 53 -10 305 l-25 275 -66 175 c-63 170 -65
178 -56 230 10 59 5 65 -45 65 -31 0 -93 34 -114 63 -16 22 -132 358 -125 364
1 2 46 -68 99 -156 53 -87 104 -164 113 -172 22 -18 388 -35 427 -20 40 15 61
64 47 107 -16 47 -53 64 -142 64 -40 0 -109 3 -153 6 l-80 7 -55 91 c-126 209
-125 203 -16 97 53 -52 99 -91 103 -88 3 4 12 45 19 92 13 81 13 89 -5 130
-12 27 -31 50 -49 59 -17 9 -92 25 -168 37 -77 11 -141 22 -143 24 -1 2 5 37
14 77 l18 74 47 -47 c53 -53 89 -65 171 -57 183 18 224 279 57 362 -66 33
-110 33 -176 0z"/>
</g>
</svg>
